<svg xmlns:dc="http://purl.org/dc/elements/1.1/" xmlns:cc="http://creativecommons.org/ns#" xmlns:rdf="http://www.w3.org/1999/02/22-rdf-syntax-ns#" xmlns:svg="http://www.w3.org/2000/svg" xmlns="http://www.w3.org/2000/svg" xmlns:sodipodi="http://sodipodi.sourceforge.net/DTD/sodipodi-0.dtd" xmlns:inkscape="http://www.inkscape.org/namespaces/inkscape" viewBox="0 0 1280 1600" version="1.1" x="0px" y="0px"><g transform="translate(4193.1081,-608.35883)"><path style="" d="m -4193.1081,1248.3588 0,-639.99997 640,0 640,0 0,639.99997 0,640 -640,0 -640,0 0,-640 z m 1236.25,-0.625 0,-595.62497 -595.625,0 -595.625,0 0,595.62497 0,595.625 595.625,0 595.625,0 0,-595.625 z m -612.5,16.25 -361.8681,-361.86966 15.625,-15.625 15.625,-15.625 361.8681,361.86966 361.8681,361.8697 -15.625,15.625 -15.625,15.625 -361.8681,-361.8697 z" fill="#000000"/></g><text x="0" y="1295" fill="#000000" font-size="5px" font-weight="bold" font-family="'Helvetica Neue', Helvetica, Arial-Unicode, Arial, Sans-serif">Created by iconeu</text><text x="0" y="1300" fill="#000000" font-size="5px" font-weight="bold" font-family="'Helvetica Neue', Helvetica, Arial-Unicode, Arial, Sans-serif">from the Noun Project</text></svg>